<svg width="30" height="15" viewBox="0 0 30 15" fill="none" xmlns="http://www.w3.org/2000/svg">
<path d="M1.31738 6.45923C0.765098 6.45923 0.317383 6.90694 0.317383 7.45923C0.317383 8.01151 0.765098 8.45923 1.31738 8.45923V6.45923ZM29.5527 8.16634C29.9432 7.77581 29.9432 7.14265 29.5527 6.75212L23.1887 0.388161C22.7982 -0.00236368 22.165 -0.00236368 21.7745 0.388161C21.384 0.778685 21.384 1.41185 21.7745 1.80237L27.4314 7.45923L21.7745 13.1161C21.384 13.5066 21.384 14.1398 21.7745 14.5303C22.165 14.9208 22.7982 14.9208 23.1887 14.5303L29.5527 8.16634ZM1.31738 8.45923H28.8456V6.45923H1.31738V8.45923Z" fill="#B5B8BB"/>
</svg>
