<svg width="48" height="49" viewBox="0 0 48 49" fill="none" xmlns="http://www.w3.org/2000/svg">
<circle cx="23.9578" cy="24.8387" r="23.9578" fill="#F0F0F0"/>
<path fill-rule="evenodd" clip-rule="evenodd" d="M35.186 24.9064C35.186 18.7058 30.1584 13.6782 23.9578 13.6782C17.7572 13.6782 12.7296 18.7058 12.7296 24.9064C12.7296 30.5105 16.8349 35.1557 22.2034 35.9988V28.1531H19.3517V24.9064H22.2034V22.4327C22.2034 19.6191 23.8801 18.0637 26.4446 18.0637C27.6731 18.0637 28.9584 18.2833 28.9584 18.2833V21.0467H27.5418C26.1478 21.0467 25.7117 21.9119 25.7117 22.8011V24.9064H28.8255L28.3283 28.1531H25.7122V35.9998C31.0807 35.1572 35.186 30.512 35.186 24.9064Z" fill="#1371E2"/>
</svg>
