<svg width="130" height="67" viewBox="0 0 130 67" fill="none" xmlns="http://www.w3.org/2000/svg">
<path d="M34.5709 31.6187H29.9089V36.1349H34.5709V31.6187Z" fill="black"/>
<path d="M40.5426 31.6187H35.735V36.1349H40.5426V31.6187Z" fill="black"/>
<path d="M34.5709 36.8685H29.9089V41.5304H34.5709V36.8685Z" fill="black"/>
<path d="M40.5426 36.8685H35.735V41.5304H40.5426V36.8685Z" fill="black"/>
<path d="M90.3663 29.7266H85.7043V34.3886H90.3663V29.7266Z" fill="black"/>
<path d="M96.1959 29.7266H91.5339V34.3886H96.1959V29.7266Z" fill="black"/>
<path d="M63.7083 16.9077H59.0464V21.5697H63.7083V16.9077Z" fill="black"/>
<path d="M69.5342 16.9077H64.7266V21.5697H69.5342V16.9077Z" fill="black"/>
<path d="M63.7083 22.1504H59.0464V26.8124H63.7083V22.1504Z" fill="black"/>
<path d="M69.5342 22.1504H64.7266V26.8124H69.5342V22.1504Z" fill="black"/>
<path fill-rule="evenodd" clip-rule="evenodd" d="M43.0696 20.1903L63.9985 0.880859L84.2892 19.8023L90.8036 13.8489L121.106 41.675H121.049C123.418 43.6858 125.364 46.2727 126.788 49.5382C128.698 54.9079 129.539 60.5994 129.264 66.2921C129.104 59.9015 126.435 53.8308 121.834 49.3925C104.591 34.0339 66.994 43.1126 38.209 50.0634C22.4877 53.8596 9.39505 57.0211 3.68277 55.2199C-10.131 50.8642 18.4716 27.4796 30.9184 17.3035C33.0425 15.5669 34.6961 14.215 35.588 13.408L43.0696 20.1903ZM63.9985 8.01951L80.5193 23.2475L63.5493 38.756L46.9944 23.7483L63.9985 8.01951ZM107.286 36.0878L90.8036 20.9875L68.6627 41.1415C82.1814 37.4146 96.1495 34.5818 107.286 36.0878ZM35.588 20.5466L60.3547 43.4193C50.5937 46.4787 -0.979188 55.2199 13.5894 40.6513L35.588 20.5466Z" fill="#1371E2"/>
</svg>
