<svg width="49" height="49" viewBox="0 0 49 49" fill="none" xmlns="http://www.w3.org/2000/svg">
<circle cx="24.4246" cy="24.8387" r="23.9578" fill="#F0F0F0"/>
<path d="M19.9333 14.1455H28.9159C32.3378 14.1455 35.1181 16.9258 35.1181 20.3478V29.3303C35.1181 30.9753 34.4647 32.5528 33.3015 33.716C32.1384 34.8791 30.5608 35.5326 28.9159 35.5326H19.9333C16.5114 35.5326 13.7311 32.7522 13.7311 29.3303V20.3478C13.7311 18.7028 14.3845 17.1252 15.5477 15.9621C16.7108 14.799 18.2884 14.1455 19.9333 14.1455ZM19.7195 16.2842C18.6985 16.2842 17.7193 16.6898 16.9973 17.4118C16.2754 18.1337 15.8698 19.1129 15.8698 20.1339V29.5442C15.8698 31.6722 17.5914 33.3939 19.7195 33.3939H29.1298C30.1507 33.3939 31.1299 32.9883 31.8519 32.2663C32.5738 31.5444 32.9794 30.5652 32.9794 29.5442V20.1339C32.9794 18.0059 31.2578 16.2842 29.1298 16.2842H19.7195ZM30.0387 17.8882C30.3932 17.8882 30.7332 18.0291 30.9839 18.2797C31.2346 18.5304 31.3754 18.8704 31.3754 19.2249C31.3754 19.5794 31.2346 19.9194 30.9839 20.1701C30.7332 20.4208 30.3932 20.5616 30.0387 20.5616C29.6842 20.5616 29.3442 20.4208 29.0935 20.1701C28.8428 19.9194 28.702 19.5794 28.702 19.2249C28.702 18.8704 28.8428 18.5304 29.0935 18.2797C29.3442 18.0291 29.6842 17.8882 30.0387 17.8882ZM24.4246 19.4923C25.8427 19.4923 27.2026 20.0556 28.2053 21.0583C29.208 22.061 29.7714 23.421 29.7714 24.839C29.7714 26.2571 29.208 27.6171 28.2053 28.6198C27.2026 29.6225 25.8427 30.1858 24.4246 30.1858C23.0066 30.1858 21.6466 29.6225 20.6439 28.6198C19.6412 27.6171 19.0778 26.2571 19.0778 24.839C19.0778 23.421 19.6412 22.061 20.6439 21.0583C21.6466 20.0556 23.0066 19.4923 24.4246 19.4923ZM24.4246 21.631C23.5738 21.631 22.7578 21.969 22.1562 22.5706C21.5545 23.1722 21.2165 23.9882 21.2165 24.839C21.2165 25.6899 21.5545 26.5058 22.1562 27.1075C22.7578 27.7091 23.5738 28.0471 24.4246 28.0471C25.2754 28.0471 26.0914 27.7091 26.693 27.1075C27.2947 26.5058 27.6327 25.6899 27.6327 24.839C27.6327 23.9882 27.2947 23.1722 26.693 22.5706C26.0914 21.969 25.2754 21.631 24.4246 21.631Z" fill="#A6A6A6"/>
</svg>
