<svg width="49" height="49" viewBox="0 0 49 49" fill="none" xmlns="http://www.w3.org/2000/svg">
<circle cx="24.1912" cy="24.8387" r="23.9578" fill="#F0F0F0"/>
<path d="M35.3766 17.8877C34.5532 18.262 33.6656 18.508 32.746 18.6256C33.687 18.0588 34.4142 17.1606 34.7564 16.0805C33.8688 16.6152 32.885 16.9895 31.8477 17.2033C31.0029 16.2837 29.816 15.749 28.4686 15.749C25.9556 15.749 23.9024 17.8022 23.9024 20.3365C23.9024 20.7001 23.9452 21.053 24.0201 21.3845C20.2132 21.192 16.8233 19.3634 14.567 16.5938C14.1713 17.2675 13.9468 18.0588 13.9468 18.8929C13.9468 20.4863 14.7488 21.8978 15.9892 22.6998C15.23 22.6998 14.5242 22.4859 13.904 22.1651C13.904 22.1651 13.904 22.1651 13.904 22.1972C13.904 24.4215 15.4866 26.2821 17.5826 26.6992C17.1976 26.8061 16.7912 26.8596 16.3742 26.8596C16.0855 26.8596 15.7967 26.8275 15.5187 26.774C16.0962 28.5813 17.775 29.9286 19.7961 29.9607C18.2349 31.2012 16.2566 31.9283 14.0965 31.9283C13.7329 31.9283 13.3693 31.9069 13.0057 31.8642C15.0375 33.1688 17.4542 33.928 20.0421 33.928C28.4686 33.928 33.0989 26.9344 33.0989 20.8712C33.0989 20.668 33.0989 20.4756 33.0882 20.2724C33.9864 19.6308 34.7564 18.8181 35.3766 17.8877Z" fill="#A6A6A6"/>
</svg>
