<svg width="16" height="21" viewBox="0 0 16 21" fill="none" xmlns="http://www.w3.org/2000/svg">
<path d="M7.85715 0.811523C5.77406 0.813981 3.77699 1.64257 2.30403 3.11554C0.831059 4.58851 0.00246584 6.58558 8.3592e-06 8.66867C-0.00248656 10.371 0.553566 12.0271 1.58287 13.383C1.58287 13.383 1.79715 13.6651 1.83215 13.7058L7.85715 20.8115L13.885 13.7022C13.9164 13.6644 14.1314 13.383 14.1314 13.383L14.1322 13.3808C15.1609 12.0255 15.7167 10.3702 15.7143 8.66867C15.7118 6.58558 14.8832 4.58851 13.4103 3.11554C11.9373 1.64257 9.94024 0.813981 7.85715 0.811523ZM7.85715 11.5258C7.29206 11.5258 6.73966 11.3582 6.26981 11.0443C5.79995 10.7303 5.43375 10.2841 5.2175 9.76205C5.00125 9.23997 4.94466 8.6655 5.05491 8.11127C5.16515 7.55703 5.43727 7.04794 5.83685 6.64836C6.23642 6.24878 6.74552 5.97667 7.29975 5.86642C7.85398 5.75618 8.42846 5.81276 8.95053 6.02901C9.47261 6.24526 9.91883 6.61147 10.2328 7.08132C10.5467 7.55118 10.7143 8.10358 10.7143 8.66867C10.7133 9.42614 10.412 10.1523 9.87641 10.6879C9.3408 11.2235 8.61462 11.5249 7.85715 11.5258Z" fill="#1371E2"/>
</svg>
