<svg width="21" height="19" viewBox="0 0 21 19" fill="none" xmlns="http://www.w3.org/2000/svg">
<path d="M21.0032 9.61816C21.0032 10.251 20.4759 10.7467 19.8782 10.7467H18.7532L18.7778 16.3752C18.7778 16.4736 18.7708 16.565 18.7603 16.66V17.2295C18.7603 18.0064 18.131 18.6357 17.354 18.6357H16.7915C16.7528 18.6357 16.7142 18.6041 16.6755 18.6322C16.6263 18.6041 16.5771 18.6357 16.5278 18.6357H14.5415C13.7646 18.6357 13.1353 18.0064 13.1353 17.2295V14.1357C13.1353 13.5135 12.6325 13.0107 12.0103 13.0107H9.76025C9.13799 13.0107 8.63525 13.5135 8.63525 14.1357V17.2295C8.63525 18.0064 8.00596 18.6357 7.229 18.6357H5.26377C5.21104 18.6357 5.1583 18.6322 5.10557 18.6287C5.06338 18.6322 5.02119 18.6357 4.979 18.6357H4.4165C3.6399 18.6357 3.01025 18.0064 3.01025 17.2295V13.292C3.01025 13.2604 3.01131 13.2252 3.01342 13.1936V10.7467H1.88701C1.25314 10.7467 0.760254 10.251 0.760254 9.61816C0.760254 9.30176 0.865863 9.02051 1.11217 8.77441L10.1259 0.917555C10.372 0.670969 10.6532 0.635742 10.8993 0.635742C11.1454 0.635742 11.4267 0.706195 11.6411 0.882328L20.6165 8.77441C20.8978 9.02051 21.0419 9.30176 21.0032 9.61816Z" fill="#1371E2"/>
</svg>
