<svg width="21" height="21" viewBox="0 0 21 21" fill="none" xmlns="http://www.w3.org/2000/svg">
<path d="M10.5205 0.561523C4.99819 0.561523 0.520508 5.0392 0.520508 10.5615C0.520508 16.0838 4.99819 20.5615 10.5205 20.5615C16.0428 20.5615 20.5205 16.0838 20.5205 10.5615C20.5205 5.0392 16.0428 0.561523 10.5205 0.561523ZM11.0183 15.4097L11.0227 16.1173C11.0227 16.2155 10.9424 16.2981 10.8442 16.2981H10.2102C10.112 16.2981 10.0317 16.2178 10.0317 16.1196V15.4187C8.04953 15.2713 7.11649 14.1419 7.01604 12.9142C7.00711 12.8093 7.0897 12.72 7.19461 12.72H8.22587C8.31292 12.72 8.38881 12.7825 8.4022 12.8673C8.51604 13.5749 9.06738 14.1039 10.0562 14.2356V11.0504L9.50488 10.9097C8.33747 10.6307 7.22586 9.90304 7.22586 8.39411C7.22586 6.76688 8.46247 5.89188 10.0428 5.73786V5.00126C10.0428 4.90304 10.1232 4.82268 10.2214 4.82268H10.8486C10.9468 4.82268 11.0272 4.90304 11.0272 5.00126V5.73117C12.5562 5.88518 13.7035 6.77804 13.8375 8.16867C13.8486 8.27358 13.766 8.3651 13.6589 8.3651H12.6567C12.5674 8.3651 12.4915 8.29813 12.4803 8.21108C12.391 7.55929 11.8687 7.02804 11.0183 6.91197V9.90974L11.5852 10.0414C13.0317 10.3986 14.016 11.0905 14.016 12.6396C14.016 14.3205 12.766 15.258 11.0183 15.4097ZM8.61426 8.29143C8.61426 8.8584 8.9647 9.29813 9.71917 9.57045C9.82408 9.61286 9.92899 9.64635 10.054 9.68206V6.9142C9.23033 7.01911 8.61426 7.48117 8.61426 8.29143ZM11.2147 11.3093C11.1522 11.2959 11.0897 11.2803 11.0183 11.2602V14.2446C11.9692 14.1597 12.6254 13.6374 12.6254 12.7624C12.6254 12.0771 12.2705 11.6307 11.2147 11.3093Z" fill="#1371E2"/>
</svg>
