<svg width="24" height="24" viewBox="0 0 24 24" fill="none" xmlns="http://www.w3.org/2000/svg">
<path fill-rule="evenodd" clip-rule="evenodd" d="M11.7197 0.0322266C17.8779 0.0322266 22.887 5.04133 22.887 11.1995C22.887 14.1049 21.772 16.7548 19.9474 18.7436L23.5377 22.3263C23.8737 22.6623 23.8748 23.2059 23.5388 23.5419C23.3714 23.7116 23.1501 23.7953 22.9299 23.7953C22.7108 23.7953 22.4907 23.7116 22.3221 23.5442L18.6885 19.9207C16.7771 21.4515 14.3535 22.3679 11.7197 22.3679C5.56152 22.3679 0.55127 17.3577 0.55127 11.1995C0.55127 5.04133 5.56152 0.0322266 11.7197 0.0322266ZM11.7197 1.75239C6.50991 1.75239 2.27143 5.98972 2.27143 11.1995C2.27143 16.4093 6.50991 20.6478 11.7197 20.6478C16.9283 20.6478 21.1668 16.4093 21.1668 11.1995C21.1668 5.98972 16.9283 1.75239 11.7197 1.75239Z" fill="white"/>
</svg>
