<svg width="26" height="21" viewBox="0 0 26 21" fill="none" xmlns="http://www.w3.org/2000/svg">
<path d="M6.92802 0.0600586C5.24946 0.0600586 3.88454 1.42498 3.88454 3.10354V8.75571H2.14541C1.43033 8.75571 0.841064 9.34498 0.841064 10.0601C0.841064 10.7751 1.43033 11.3644 2.14541 11.3644H2.73393C2.9488 11.8605 3.44976 13.1457 3.44976 14.4079C3.44976 16.4211 4.97229 18.0789 6.92802 18.2955V19.6253C6.9288 19.8656 7.12251 20.061 7.3628 20.0601H9.10193C9.34087 20.0593 9.53594 19.8642 9.53672 19.6253V18.3209H16.4932V19.6253C16.494 19.8656 16.6877 20.061 16.928 20.0601H18.6671C18.9061 20.0593 19.1012 19.8642 19.1019 19.6253V18.2955C21.0575 18.0789 22.5802 16.4211 22.5802 14.4079C22.5802 13.1457 23.0823 11.8605 23.2978 11.3644H23.8845C24.5996 11.3644 25.1889 10.7751 25.1889 10.0601C25.1889 9.34498 24.5996 8.75571 23.8845 8.75571H4.75411V3.10354C4.75411 1.89156 5.71605 0.929624 6.92802 0.929624H8.66715C9.55883 0.929624 10.3393 1.47854 10.6848 2.24152C9.56057 2.32246 8.66715 3.26364 8.66715 4.40788V5.27745C8.66793 5.51774 8.86164 5.7132 9.10193 5.71223H13.4498C13.6899 5.71301 13.8838 5.51774 13.8845 5.27745V4.40788C13.8845 3.21106 12.9074 2.23397 11.7106 2.23397H11.6147C11.2297 0.976232 10.0416 0.0600586 8.66717 0.0600586H6.92802ZM10.8411 3.10354H11.7106C12.4408 3.10354 13.015 3.6779 13.015 4.40788V4.84267H9.53672V4.40788C9.53672 3.6777 10.1109 3.10354 10.8411 3.10354ZM2.14541 9.62527H23.8845C24.133 9.62527 24.3193 9.81161 24.3193 10.0601C24.3193 10.3085 24.133 10.4948 23.8845 10.4948H2.14541C1.89696 10.4948 1.71063 10.3085 1.71063 10.0601C1.71063 9.81161 1.89696 9.62527 2.14541 9.62527ZM3.56097 11.3644H22.4678C22.2523 11.8312 21.7104 12.8467 21.7104 14.4079C21.7104 16.1014 20.3605 17.4514 18.667 17.4514H7.3626C5.66909 17.4514 4.31913 16.1014 4.31913 14.4079C4.31913 12.8467 3.77622 11.8312 3.56077 11.3644H3.56097ZM7.79759 18.3209H8.66715V19.1905H7.79759V18.3209ZM17.3628 18.3209H18.2324V19.1905H17.3628V18.3209Z" fill="black" fill-opacity="0.44"/>
</svg>
