<svg width="24" height="21" viewBox="0 0 24 21" fill="none" xmlns="http://www.w3.org/2000/svg">
<path d="M21.9999 9.67541H21.4385V4.84469C21.4385 4.18778 21.1775 3.55763 20.713 3.09315C20.2486 2.62867 19.6185 2.36771 18.9615 2.36771H13.5308C13.669 2.13471 13.7434 1.86943 13.7461 1.59848C13.7461 1.04886 13.4528 0.540955 12.9769 0.266101C12.5009 -0.00862204 11.9144 -0.00862204 11.4384 0.266101C10.9625 0.540994 10.6692 1.04891 10.6692 1.59848C10.672 1.86943 10.7463 2.1347 10.8845 2.36771H5.4538C4.79689 2.36771 4.16674 2.62869 3.70226 3.09315C3.23778 3.55761 2.97682 4.18773 2.97682 4.84469V9.67541H2.41537C1.95247 9.67644 1.50896 9.86068 1.18171 10.1879C0.854449 10.5152 0.6702 10.9587 0.669189 11.4216V16.7754C0.670048 17.2017 0.826981 17.6128 1.11064 17.9309C1.39411 18.2493 1.78439 18.4526 2.20764 18.5024V19.6754C2.20764 19.7774 2.24816 19.8753 2.32027 19.9474C2.39239 20.0195 2.49026 20.0601 2.59225 20.0601H4.13069C4.23268 20.0601 4.33056 20.0195 4.40267 19.9474C4.47478 19.8753 4.51531 19.7774 4.51531 19.6754V18.5216H19.8998V19.6754C19.8998 19.7774 19.9403 19.8753 20.0124 19.9474C20.0845 20.0195 20.1824 20.0601 20.2844 20.0601H21.8228C21.9248 20.0601 22.0227 20.0195 22.0948 19.9474C22.1669 19.8753 22.2074 19.7774 22.2074 19.6754V18.5024C22.6307 18.4526 23.021 18.2493 23.3044 17.9309C23.5881 17.6128 23.745 17.2017 23.7459 16.7754V11.4216C23.7449 10.9587 23.5606 10.5152 23.2334 10.1879C22.9061 9.86067 22.4626 9.67642 21.9997 9.67541H21.9999ZM11.4387 1.59857C11.4387 1.39459 11.5198 1.19885 11.664 1.05462C11.8082 0.910393 12.004 0.829348 12.2079 0.829348C12.4119 0.829348 12.6077 0.910393 12.7519 1.05462C12.8961 1.19885 12.9772 1.39459 12.9772 1.59857C12.9772 1.80255 12.8961 1.99829 12.7519 2.14252C12.6077 2.28675 12.4119 2.36779 12.2079 2.36779C12.004 2.36779 11.8082 2.28675 11.664 2.14252C11.5198 1.99829 11.4387 1.80255 11.4387 1.59857ZM3.74649 4.84478C3.74649 4.39182 3.92643 3.9574 4.24666 3.63719C4.56688 3.31697 5.00129 3.13702 5.45425 3.13702H18.9618C19.4148 3.13702 19.8492 3.31696 20.1694 3.63719C20.4896 3.95741 20.6696 4.39182 20.6696 4.84478V9.6755H19.9004V9.41778C19.8993 9.07849 19.764 8.7533 19.5241 8.51326C19.2841 8.27339 18.9589 8.13809 18.6196 8.13706H14.258C13.9188 8.13809 13.5936 8.27339 13.3535 8.51326C13.1137 8.7533 12.9784 9.07848 12.9773 9.41778V9.6755H11.4389V9.41778C11.4379 9.07849 11.3026 8.7533 11.0627 8.51326C10.8226 8.27339 10.4975 8.13809 10.1582 8.13706H5.79658C5.4573 8.13809 5.13211 8.27339 4.89207 8.51326C4.6522 8.7533 4.5169 9.07848 4.51587 9.41778V9.6755H3.74664L3.74649 4.84478ZM19.131 9.6755H13.7464V9.41778C13.7464 9.13533 13.9754 8.90627 14.2579 8.90627H18.6195C18.9019 8.90627 19.131 9.13531 19.131 9.41778L19.131 9.6755ZM10.6695 9.6755H5.28493V9.41778C5.28493 9.13533 5.51398 8.90627 5.79644 8.90627H10.158C10.4405 8.90627 10.6695 9.13531 10.6695 9.41778L10.6695 9.6755ZM1.43882 11.4217C1.43882 11.1626 1.54166 10.914 1.72487 10.7308C1.90808 10.5476 2.1567 10.4447 2.41581 10.4447H22.0002C22.2593 10.4447 22.508 10.5476 22.6912 10.7308C22.8744 10.914 22.9772 11.1626 22.9772 11.4217V15.0601H1.43898L1.43882 11.4217ZM3.74649 19.2907H2.97726V18.5214H3.74649V19.2907ZM21.4386 19.2907H20.6694V18.5214H21.4386V19.2907ZM22.9771 16.7752C22.9771 17.0343 22.8742 17.2829 22.691 17.4662C22.5078 17.6494 22.2592 17.7522 22.0001 17.7522H2.41565C2.15655 17.7522 1.90792 17.6494 1.72471 17.4662C1.54151 17.2829 1.43866 17.0343 1.43866 16.7752V15.8292H22.9769L22.9771 16.7752Z" fill="black" fill-opacity="0.44"/>
</svg>
