<svg width="17" height="12" viewBox="0 0 17 12" fill="none" xmlns="http://www.w3.org/2000/svg">
<path d="M16.2365 4.9762C16.6507 4.9762 16.9865 5.31198 16.9865 5.7262C16.9865 6.14041 16.6507 6.4762 16.2365 6.4762V4.9762ZM0.892675 6.25653C0.599782 5.96363 0.599782 5.48876 0.892675 5.19587L5.66565 0.422895C5.95854 0.130002 6.43341 0.130002 6.72631 0.422895C7.0192 0.715789 7.0192 1.19066 6.72631 1.48356L2.48367 5.7262L6.72631 9.96884C7.0192 10.2617 7.0192 10.7366 6.72631 11.0295C6.43341 11.3224 5.95854 11.3224 5.66565 11.0295L0.892675 6.25653ZM16.2365 6.4762H1.42301V4.9762H16.2365V6.4762Z" fill="#B5B8BB"/>
</svg>
