<svg width="21" height="21" viewBox="0 0 21 21" fill="none" xmlns="http://www.w3.org/2000/svg">
<mask id="path-1-inside-1_281_130" fill="white">
<path d="M0.939941 4.06006C0.939941 1.85092 2.7308 0.0600586 4.93994 0.0600586H16.9399C19.1491 0.0600586 20.9399 1.85092 20.9399 4.06006V16.0601C20.9399 18.2692 19.1491 20.0601 16.9399 20.0601H4.93994C2.7308 20.0601 0.939941 18.2692 0.939941 16.0601V4.06006Z"/>
</mask>
<path d="M6.96851 5.58838C6.69236 5.58838 6.46851 5.81224 6.46851 6.08838V10.5884C6.46851 10.8645 6.69236 11.0884 6.96851 11.0884C7.24465 11.0884 7.46851 10.8645 7.46851 10.5884V6.58838H11.4685C11.7446 6.58838 11.9685 6.36452 11.9685 6.08838C11.9685 5.81224 11.7446 5.58838 11.4685 5.58838H6.96851ZM14.9114 14.5313C15.1876 14.5313 15.4114 14.3075 15.4114 14.0313V9.53131C15.4114 9.25517 15.1876 9.03131 14.9114 9.03131C14.6353 9.03131 14.4114 9.25517 14.4114 9.53131V13.5313H10.4114C10.1353 13.5313 9.91144 13.7552 9.91144 14.0313C9.91144 14.3075 10.1353 14.5313 10.4114 14.5313H14.9114ZM6.61495 6.44193L14.5579 14.3849L15.265 13.6778L7.32206 5.73483L6.61495 6.44193ZM4.93994 1.06006H16.9399V-0.939941H4.93994V1.06006ZM19.9399 4.06006V16.0601H21.9399V4.06006H19.9399ZM16.9399 19.0601H4.93994V21.0601H16.9399V19.0601ZM1.93994 16.0601V4.06006H-0.0600586V16.0601H1.93994ZM4.93994 19.0601C3.28309 19.0601 1.93994 17.7169 1.93994 16.0601H-0.0600586C-0.0600586 18.8215 2.17852 21.0601 4.93994 21.0601V19.0601ZM19.9399 16.0601C19.9399 17.7169 18.5968 19.0601 16.9399 19.0601V21.0601C19.7014 21.0601 21.9399 18.8215 21.9399 16.0601H19.9399ZM16.9399 1.06006C18.5968 1.06006 19.9399 2.4032 19.9399 4.06006H21.9399C21.9399 1.29864 19.7014 -0.939941 16.9399 -0.939941V1.06006ZM4.93994 -0.939941C2.17852 -0.939941 -0.0600586 1.29863 -0.0600586 4.06006H1.93994C1.93994 2.4032 3.28309 1.06006 4.93994 1.06006V-0.939941Z" fill="#8F8F8F" mask="url(#path-1-inside-1_281_130)"/>
</svg>
