<svg width="130" height="66" viewBox="0 0 130 66" fill="none" xmlns="http://www.w3.org/2000/svg">
<path d="M34.571 30.7378H29.9091V35.254H34.571V30.7378Z" fill="black"/>
<path d="M40.5428 30.7378H35.7351V35.254H40.5428V30.7378Z" fill="black"/>
<path d="M34.571 35.9876H29.9091V40.6496H34.571V35.9876Z" fill="black"/>
<path d="M40.5428 35.9876H35.7351V40.6496H40.5428V35.9876Z" fill="black"/>
<path d="M90.3664 28.8457H85.7045V33.5077H90.3664V28.8457Z" fill="black"/>
<path d="M96.196 28.8457H91.5341V33.5077H96.196V28.8457Z" fill="black"/>
<path d="M63.7085 16.0269H59.0465V20.6888H63.7085V16.0269Z" fill="black"/>
<path d="M69.5344 16.0269H64.7267V20.6888H69.5344V16.0269Z" fill="black"/>
<path d="M63.7085 21.2696H59.0465V25.9315H63.7085V21.2696Z" fill="black"/>
<path d="M69.5344 21.2696H64.7267V25.9315H69.5344V21.2696Z" fill="black"/>
<path fill-rule="evenodd" clip-rule="evenodd" d="M43.0697 19.3094L63.9986 0L84.2893 18.9214L90.8038 12.968L121.107 40.7941H121.049C123.418 42.8049 125.364 45.3918 126.788 48.6573C128.698 54.0271 129.539 59.7185 129.264 65.4112C129.104 59.0207 126.435 52.95 121.834 48.5116C104.591 33.153 66.9941 42.2317 38.2091 49.1825C22.4878 52.9787 9.39517 56.1402 3.68289 54.3391C-10.1309 49.9834 18.4717 26.5987 30.9185 16.4226C33.0426 14.6861 34.6962 13.3341 35.5882 12.5271L43.0697 19.3094ZM63.9986 7.13865L80.5195 22.3666L63.5494 37.8752L46.9945 22.8674L63.9986 7.13865ZM107.286 35.2069L90.8038 20.1067L68.6628 40.2606C82.1815 36.5338 96.1497 33.7009 107.286 35.2069ZM35.5882 19.6657L60.3548 42.5385C50.5938 45.5979 -0.979066 54.3391 13.5896 39.7705L35.5882 19.6657Z" fill="#1371E2"/>
</svg>
